<?xml version="1.0" standalone="no"?><!DOCTYPE svg PUBLIC "-//W3C//DTD SVG 1.1//EN" "http://www.w3.org/Graphics/SVG/1.1/DTD/svg11.dtd"><svg t="1569746654900" class="icon" viewBox="0 0 1024 1024" version="1.1" xmlns="http://www.w3.org/2000/svg" p-id="1362" xmlns:xlink="http://www.w3.org/1999/xlink" width="200" height="200"><defs><style type="text/css"></style></defs><path d="M1014.66637269 552.78794587c-10.44674761 112.91378175-58.90187461 223.16030887-145.80992278 309.84608616-197.1545753 196.48776164-516.33605264 196.71003352-713.26835705 0.44454178-18.89305425-18.89305425-36.00793842-38.89746394-51.34465252-60.01323005 128.69503861 65.79228206 222.71576611 70.90452042 293.62028653 58.01278908 82.01808169-17.78169783 245.38743141-189.37508231 497.88754116-441.20837939-62.01367102-61.79140013-162.48026419-61.79140013-224.71620708 0.22227188-58.01278908 58.01278908-47.34377058 47.56604147-87.35259093 87.13031906l-14.44762955 14.44762955-58.45733185-83.79625079c30.4511573-30.4511573 48.455127-48.455127 89.13076004-88.90849012 40.67563402-40.67563402 91.57574377-64.90319752 144.47629546-72.90496139 0 0 116.47012092-25.7834617 206.48996747 65.79228305 67.12590938 71.12679131 66.01455394 118.02602011 63.7918411 210.93539118z m-388.53009957-400.08820359c-82.01808169 17.78169783-245.38743141 189.37508231-497.88754115 441.20837939 62.01367102 61.79140013 162.48026419 61.79140013 224.71620708-0.22227089 58.01278908-58.01278908 47.56604147-47.34377058 87.35259093-87.13032005l14.44762955-14.44762954 58.45733184 83.79625176c-30.4511573 30.4511573-48.455127 48.455127-89.13076003 88.90848914-40.67563402 40.67563402-91.57574377 64.90319752-144.47629547 72.90496139 0 0-116.47012092 25.7834617-206.48996746-65.79228206C5.77728814 600.79853011 7.11091545 553.89930131 9.33362731 460.76765934c10.44674761-112.91378175 58.90187461-223.16030887 145.80992278-309.84608615 197.1545753-196.48776164 516.33605264-196.71003352 713.26835705-0.44454277 18.89305425 18.89305425 36.00793842 38.89746394 51.34465252 60.01323005-128.69503861-65.79228206-222.71576611-70.68224953-293.62028653-57.79051819z" fill="#1666AB" p-id="1363"></path></svg>